<svg width="31" height="42" viewBox="0 0 31 42" fill="none" xmlns="http://www.w3.org/2000/svg">
<path d="M4.41992 2C4.41992 0.89543 5.31535 0 6.41992 0C7.52449 0 8.41992 0.895431 8.41992 2V22H4.41992V2Z" fill="white"/>
<path d="M4.41992 39.2275C4.41992 40.3321 5.31535 41.2275 6.41992 41.2275C7.52449 41.2275 8.41992 40.3321 8.41992 39.2275V31.0003H4.41992V39.2275Z" fill="white"/>
<circle cx="6.41992" cy="26.1138" r="5" stroke="white" stroke-width="2"/>
<path d="M22.4199 39C22.4199 40.1046 23.3154 41 24.4199 41C25.5245 41 26.4199 40.1046 26.4199 39V19H22.4199V39Z" fill="white"/>
<path d="M22.4199 2C22.4199 0.895432 23.3154 0 24.4199 0C25.5245 0 26.4199 0.895431 26.4199 2V10.2273H22.4199V2Z" fill="white"/>
<circle r="5" transform="matrix(1 0 0 -1 24.4199 14.8862)" stroke="white" stroke-width="2"/>
</svg>
