<?xml version="1.0" encoding="utf-8"?>
<!-- Generator: Adobe Illustrator 19.1.0, SVG Export Plug-In . SVG Version: 6.00 Build 0)  -->
<svg version="1.0" id="Layer_1" xmlns="http://www.w3.org/2000/svg" xmlns:xlink="http://www.w3.org/1999/xlink" x="0px" y="0px"
	 width="80px" height="80px" viewBox="0 0 80 80" style="enable-background:new 0 0 80 80;" xml:space="preserve">
<style type="text/css">
	.st0{fill:#ECA835;}
	.st1{fill:#0177B5;}
	.st2{fill:none;}
	.st3{fill:#010101;}
	.st4{clip-path:url(#SVGID_2_);fill:#3EB76A;}
	.st5{fill:#FFFFFF;}
	.st6{clip-path:url(#SVGID_4_);fill:#3EB76A;}
	.st7{fill:#029DD4;}
</style>
<g>
	<path class="st0" d="M26.4,56.7c3.6,0,6.5-2.9,6.5-6.5c0-3.6-2.9-6.5-6.5-6.5c-3.6,0-6.5,2.9-6.5,6.5
		C19.9,53.7,22.8,56.7,26.4,56.7"/>
	<path class="st0" d="M42.2,70.9v-6.3c0-4.7-3.8-5.9-8.5-5.9H19.1c-4.7,0-8.5,1.2-8.5,5.9v6.3H42.2z"/>
	<path class="st1" d="M35.4,50.4l5-8.2c-4.3-2.6-6.9-6.4-6.9-10.6c0-7.5,8.3-13.6,18.4-13.6c10.2,0,18.4,6.1,18.4,13.6
		c0,7.5-8.3,13.6-18.4,13.6c-0.6,0-1.3,0-2.1-0.1L35.4,50.4z M51.9,21c-8.5,0-15.4,4.7-15.4,10.6c0,3.4,2.5,6.7,6.6,8.7l1.5,0.7
		l-2.2,3.6l7-2.6l0.3,0c0.9,0.1,1.5,0.1,2.2,0.1c8.5,0,15.4-4.7,15.4-10.6C67.3,25.8,60.4,21,51.9,21z"/>
	<path class="st0" d="M74.4,1.2H5.6c-2.8,0-5.1,2.3-5.1,5.1v2.2v66.7c0,2.8,2.3,5.1,5.1,5.1h68.9c2.8,0,5.1-2.3,5.1-5.1V8.4V6.2
		C79.5,3.4,77.2,1.2,74.4,1.2z M14.3,7.1h59.4c0.8,0,1.4,0.6,1.4,1.4c0,0.8-0.6,1.4-1.4,1.4H14.3c-0.8,0-1.4-0.6-1.4-1.4
		C12.9,7.8,13.5,7.1,14.3,7.1z M8.3,6.1c1.4,0,2.5,1.1,2.5,2.5s-1.1,2.5-2.5,2.5c-1.4,0-2.5-1.1-2.5-2.5S6.9,6.1,8.3,6.1z
		 M74.4,75.8H5.6c-0.4,0-0.7-0.3-0.7-0.7V15.3h70.2v59.8C75.1,75.5,74.8,75.8,74.4,75.8z"/>
</g>
</svg>
