<svg width="1585" height="286" viewBox="0 0 1585 286" fill="none" xmlns="http://www.w3.org/2000/svg">
<path d="M121.359 6.98828V4.98828H119.359V6.98828H121.359ZM176.096 6.98828H178.096V4.98828H176.096V6.98828ZM170.158 231.129L172.054 231.766L172.057 231.758L172.059 231.75L170.158 231.129ZM141.213 269.352L142.339 271.004L142.349 270.998L141.213 269.352ZM23.9473 261.188L22.5038 262.572L22.5095 262.578L23.9473 261.188ZM2.05273 194.947L1.82484 192.96L0.0451298 193.164L0.0527525 194.956L2.05273 194.947ZM53.8203 189.01L55.8187 188.93L55.7333 186.777L53.5924 187.023L53.8203 189.01ZM60.6855 222.037L62.3948 220.999L62.3889 220.989L60.6855 222.037ZM113.752 226.305L115.366 227.486L115.371 227.479L115.376 227.473L113.752 226.305ZM121.359 8.98828H176.096V4.98828H121.359V8.98828ZM174.096 6.98828V179.176H178.096V6.98828H174.096ZM174.096 179.176C174.096 201.613 172.118 218.683 168.257 230.508L172.059 231.75C176.115 219.33 178.096 201.764 178.096 179.176H174.096ZM168.262 230.492C163.083 245.908 153.705 258.298 140.077 267.706L142.349 270.998C156.676 261.108 166.595 248.016 172.054 231.766L168.262 230.492ZM140.087 267.699C126.539 276.93 108.541 281.639 85.9199 281.639V285.639C109.067 285.639 127.931 280.822 142.339 271.004L140.087 267.699ZM85.9199 281.639C59.4548 281.639 39.3799 274.271 25.385 259.797L22.5095 262.578C37.4599 278.039 58.7002 285.639 85.9199 285.639V281.639ZM25.3907 259.803C11.392 245.206 4.17509 223.697 4.05272 194.939L0.0527525 194.956C0.177773 224.336 7.55721 246.987 22.5038 262.572L25.3907 259.803ZM2.28063 196.934L54.0482 190.997L53.5924 187.023L1.82484 192.96L2.28063 196.934ZM51.8219 189.089C52.4424 204.725 54.7358 216.185 58.9822 223.085L62.3889 220.989C58.7186 215.025 56.4352 204.466 55.8187 188.93L51.8219 189.089ZM58.9763 223.076C65.3023 233.487 75.0054 238.695 87.7754 238.695V234.695C76.3006 234.695 67.9438 230.131 62.3948 220.999L58.9763 223.076ZM87.7754 238.695C100.37 238.695 109.774 235.123 115.366 227.486L112.138 225.123C107.586 231.34 99.6726 234.695 87.7754 234.695V238.695ZM115.376 227.473C118.17 223.588 120.139 217.844 121.428 210.459C122.723 203.038 123.359 193.775 123.359 182.701H119.359C119.359 193.645 118.728 202.659 117.487 209.772C116.24 216.922 114.405 221.971 112.128 225.137L115.376 227.473ZM123.359 182.701V6.98828H119.359V182.701H123.359ZM234.357 6.98828V4.98828H232.357V6.98828H234.357ZM289.279 6.98828H291.279V4.98828H289.279V6.98828ZM291.32 199.771L289.358 200.157L289.361 200.171L289.363 200.185L291.32 199.771ZM308.02 226.676L306.795 228.257L306.807 228.266L306.82 228.276L308.02 226.676ZM379.641 227.232L380.887 228.797L380.894 228.791L380.902 228.785L379.641 227.232ZM396.34 6.98828V4.98828H394.34V6.98828H396.34ZM451.262 6.98828H453.262V4.98828H451.262V6.98828ZM430.295 253.209L428.784 251.899L428.779 251.905L428.774 251.911L430.295 253.209ZM398.381 275.475L399.135 277.327L399.143 277.324L399.15 277.321L398.381 275.475ZM286.867 274.732L286.041 276.554L286.051 276.558L286.061 276.563L286.867 274.732ZM255.139 251.354L253.583 252.61L253.591 252.62L255.139 251.354ZM239.738 221.109L237.789 221.558L237.791 221.567L239.738 221.109ZM234.357 8.98828H289.279V4.98828H234.357V8.98828ZM287.279 6.98828V154.312H291.279V6.98828H287.279ZM287.279 154.312C287.279 177.644 287.953 193.003 289.358 200.157L293.283 199.386C291.967 192.686 291.279 177.739 291.279 154.312H287.279ZM289.363 200.185C291.809 211.769 297.628 221.156 306.795 228.257L309.244 225.095C300.846 218.589 295.532 210.04 293.277 199.358L289.363 200.185ZM306.82 228.276C316.181 235.297 328.776 238.695 344.387 238.695V234.695C329.32 234.695 317.67 231.414 309.22 225.076L306.82 228.276ZM344.387 238.695C360.194 238.695 372.47 235.504 380.887 228.797L378.394 225.668C370.978 231.578 359.751 234.695 344.387 234.695V238.695ZM380.902 228.785C389.16 222.075 394.201 213.804 395.898 204.01L391.957 203.326C390.439 212.087 385.955 219.525 378.379 225.68L380.902 228.785ZM395.898 204.01C397.538 194.548 398.34 178.997 398.34 157.467H394.34C394.34 178.983 393.533 194.233 391.957 203.326L395.898 204.01ZM398.34 157.467V6.98828H394.34V157.467H398.34ZM396.34 8.98828H451.262V4.98828H396.34V8.98828ZM449.262 6.98828V149.859H453.262V6.98828H449.262ZM449.262 149.859C449.262 182.513 447.773 205.389 444.855 218.638L448.762 219.498C451.782 205.782 453.262 182.518 453.262 149.859H449.262ZM444.855 218.638C441.949 231.837 436.58 242.904 428.784 251.899L431.806 254.519C440.091 244.96 445.73 233.266 448.762 219.498L444.855 218.638ZM428.774 251.911C421.096 260.908 410.735 268.161 397.612 273.628L399.15 277.321C412.746 271.656 423.661 264.065 431.816 254.507L428.774 251.911ZM397.626 273.622C384.594 278.932 367.437 281.639 346.057 281.639V285.639C367.723 285.639 385.449 282.903 399.135 277.327L397.626 273.622ZM346.057 281.639C320.178 281.639 300.778 278.673 287.673 272.902L286.061 276.563C299.923 282.667 319.982 285.639 346.057 285.639V281.639ZM287.694 272.911C274.561 266.953 264.251 259.332 256.687 250.087L253.591 252.62C261.612 262.424 272.455 270.39 286.041 276.554L287.694 272.911ZM256.695 250.097C249.062 240.647 244.081 230.833 241.685 220.651L237.791 221.567C240.344 232.414 245.629 242.763 253.583 252.61L256.695 250.097ZM241.687 220.661C238.152 205.3 236.357 182.474 236.357 152.086H232.357C232.357 182.557 234.15 205.747 237.789 221.558L241.687 220.661ZM236.357 152.086V6.98828H232.357V152.086H236.357ZM495.422 190.494L495.228 188.504L493.197 188.701L493.436 190.728L495.422 190.494ZM548.859 185.299L550.828 184.946L550.502 183.13L548.666 183.308L548.859 185.299ZM568.342 224.82L567.037 226.336L567.047 226.344L568.342 224.82ZM648.127 226.305L649.407 227.841L649.409 227.839L648.127 226.305ZM655.92 183.629L654.366 184.889L654.385 184.912L654.404 184.934L655.92 183.629ZM636.252 171.754L636.922 169.869L636.914 169.867L636.906 169.864L636.252 171.754ZM592.277 159.879L592.76 157.938L592.759 157.938L592.277 159.879ZM530.305 132.975L528.97 134.464L528.97 134.464L530.305 132.975ZM516.945 39.459L515.271 38.3654L515.268 38.3696L516.945 39.459ZM550.9 11.8125L550.118 9.97183L550.113 9.97421L550.9 11.8125ZM681.525 24.8008L680.212 26.3093L680.218 26.3139L681.525 24.8008ZM708.801 84.7324L708.889 86.7305L710.868 86.6436L710.8 84.6632L708.801 84.7324ZM653.879 87.1445L651.907 87.4762L652.2 89.2202L653.967 89.1426L653.879 87.1445ZM638.664 57.0859L637.409 58.6428L637.422 58.6538L637.436 58.6646L638.664 57.0859ZM566.486 57.6426L567.659 59.263L567.661 59.261L566.486 57.6426ZM565.93 91.041L564.643 92.5717L564.644 92.573L565.93 91.041ZM675.588 128.893L674.646 130.657L674.656 130.662L674.666 130.668L675.588 128.893ZM705.646 156.539L703.939 157.581L703.946 157.592L703.953 157.602L705.646 156.539ZM703.605 243.561L701.918 242.487L703.605 243.561ZM666.867 273.99L667.632 275.838L667.645 275.833L666.867 273.99ZM528.449 260.074L527.14 261.586L527.146 261.591L528.449 260.074ZM495.615 192.485L549.053 187.289L548.666 183.308L495.228 188.504L495.615 192.485ZM546.891 185.652C550.155 203.857 556.797 217.522 567.037 226.336L569.647 223.305C560.342 215.295 553.996 202.613 550.828 184.946L546.891 185.652ZM567.047 226.344C577.397 235.142 591.199 239.438 608.234 239.438V235.438C591.871 235.438 579.078 231.321 569.637 223.296L567.047 226.344ZM608.234 239.438C626.156 239.438 639.995 235.685 649.407 227.841L646.847 224.768C638.446 231.768 625.691 235.438 608.234 235.438V239.438ZM649.409 227.839C658.806 219.987 663.672 210.675 663.672 199.957H659.672C659.672 209.278 655.508 217.531 646.845 224.77L649.409 227.839ZM663.672 199.957C663.672 193.094 661.613 187.175 657.435 182.324L654.404 184.934C657.896 188.989 659.672 193.955 659.672 199.957H663.672ZM657.473 182.369C653.421 177.372 646.456 173.257 636.922 169.869L635.582 173.639C644.85 176.931 650.997 180.733 654.366 184.889L657.473 182.369ZM636.906 169.864C630.372 167.602 615.62 163.622 592.76 157.938L591.795 161.82C614.703 167.516 629.267 171.452 635.598 173.644L636.906 169.864ZM592.759 157.938C563.398 150.659 543.138 141.786 531.639 131.485L528.97 134.464C541.222 145.44 562.277 154.502 591.796 161.82L592.759 157.938ZM531.64 131.485C515.344 116.879 507.256 99.1668 507.256 78.2383H503.256C503.256 100.357 511.867 119.135 528.97 134.464L531.64 131.485ZM507.256 78.2383C507.256 64.784 511.033 52.234 518.623 40.5484L515.268 38.3696C507.272 50.6814 503.256 63.9843 503.256 78.2383H507.256ZM518.62 40.5526C526.298 28.7951 537.291 19.8212 551.688 13.6508L550.113 9.97421C535.07 16.421 523.426 25.8781 515.271 38.3654L518.62 40.5526ZM551.683 13.6532C566.217 7.47587 583.811 4.34961 604.523 4.34961V0.349609C583.426 0.349609 565.271 3.53194 550.118 9.97184L551.683 13.6532ZM604.523 4.34961C638.414 4.34961 663.526 11.784 680.212 26.3093L682.839 23.2923C665.137 7.8827 638.914 0.349609 604.523 0.349609V4.34961ZM680.218 26.3139C697.073 40.8814 705.953 60.314 706.802 84.8017L710.8 84.6632C709.916 59.1769 700.614 38.655 682.833 23.2876L680.218 26.3139ZM708.713 82.7343L653.791 85.1465L653.967 89.1426L708.889 86.7305L708.713 82.7343ZM655.851 86.8129C653.454 72.5546 648.224 61.9874 639.892 55.5072L637.436 58.6646C644.69 64.3068 649.604 73.7788 651.907 87.4762L655.851 86.8129ZM639.92 55.5291C631.742 48.9343 619.641 45.8086 603.967 45.8086V49.8086C619.217 49.8086 630.248 52.8678 637.409 58.6428L639.92 55.5291ZM603.967 45.8086C587.763 45.8086 574.802 49.134 565.311 56.0241L567.661 59.261C576.231 53.0392 588.257 49.8086 603.967 49.8086V45.8086ZM565.314 56.0221C558.991 60.5961 555.766 66.8215 555.766 74.5273H559.766C559.766 68.1316 562.354 63.1006 567.659 59.263L565.314 56.0221ZM555.766 74.5273C555.766 81.617 558.802 87.6602 564.643 92.5717L567.217 89.5103C562.172 85.2682 559.766 80.3023 559.766 74.5273H555.766ZM564.644 92.573C568.389 95.7162 574.604 98.7808 583.064 101.829C591.574 104.895 602.54 108.008 615.939 111.171L616.858 107.278C603.538 104.133 592.733 101.061 584.42 98.0657C576.057 95.0526 570.397 92.1796 567.215 89.5091L564.644 92.573ZM615.939 111.171C642.612 117.469 662.138 123.978 674.646 130.657L676.53 127.128C663.556 120.2 643.623 113.598 616.858 107.278L615.939 111.171ZM674.666 130.668C687.225 137.188 696.965 146.158 703.939 157.581L707.354 155.497C699.979 143.418 689.68 133.956 676.51 127.118L674.666 130.668ZM703.953 157.602C711.006 168.84 714.594 182.859 714.594 199.771H718.594C718.594 182.296 714.883 167.494 707.34 155.476L703.953 157.602ZM714.594 199.771C714.594 214.963 710.38 229.189 701.918 242.487L705.293 244.634C714.148 230.718 718.594 215.751 718.594 199.771H714.594ZM701.918 242.487C693.492 255.728 681.575 265.615 666.09 272.147L667.645 275.833C683.826 269.006 696.401 258.607 705.293 244.634L701.918 242.487ZM666.102 272.142C650.584 278.568 631.134 281.824 607.678 281.824V285.824C631.474 285.824 651.483 282.525 667.632 275.838L666.102 272.142ZM607.678 281.824C573.572 281.824 547.695 273.971 529.753 258.557L527.146 261.591C546.065 277.844 573.008 285.824 607.678 285.824V281.824ZM529.758 258.562C511.794 243.01 500.953 220.327 497.408 190.26L493.436 190.728C497.066 221.521 508.242 245.225 527.14 261.586L529.758 258.562ZM824.025 279H822.025V281H824.025V279ZM824.025 53.0039H826.025V51.0039H824.025V53.0039ZM743.312 53.0039H741.312V55.0039H743.312V53.0039ZM743.312 6.98828V4.98828H741.312V6.98828H743.312ZM959.475 6.98828H961.475V4.98828H959.475V6.98828ZM959.475 53.0039V55.0039H961.475V53.0039H959.475ZM878.947 53.0039V51.0039H876.947V53.0039H878.947ZM878.947 279V281H880.947V279H878.947ZM826.025 279V53.0039H822.025V279H826.025ZM824.025 51.0039H743.312V55.0039H824.025V51.0039ZM745.312 53.0039V6.98828H741.312V53.0039H745.312ZM743.312 8.98828H959.475V4.98828H743.312V8.98828ZM957.475 6.98828V53.0039H961.475V6.98828H957.475ZM959.475 51.0039H878.947V55.0039H959.475V51.0039ZM876.947 53.0039V279H880.947V53.0039H876.947ZM878.947 277H824.025V281H878.947V277ZM993.43 279H991.43V281H993.43V279ZM993.43 6.98828V4.98828H991.43V6.98828H993.43ZM1048.35 6.98828H1050.35V4.98828H1048.35V6.98828ZM1048.35 279V281H1050.35V279H1048.35ZM995.43 279V6.98828H991.43V279H995.43ZM993.43 8.98828H1048.35V4.98828H993.43V8.98828ZM1046.35 6.98828V279H1050.35V6.98828H1046.35ZM1048.35 277H993.43V281H1048.35V277ZM1274.9 178.99L1275.51 177.084L1273.44 176.428L1272.96 178.542L1274.9 178.99ZM1328.16 195.875L1330.08 196.405L1330.59 194.55L1328.76 193.969L1328.16 195.875ZM1287.34 262.115L1288.54 263.709L1288.55 263.708L1287.34 262.115ZM1126.1 246.715L1124.64 248.085L1124.64 248.088L1126.1 246.715ZM1126.28 40.0156L1127.74 41.3821L1127.74 41.3785L1126.28 40.0156ZM1299.58 31.8516L1298.21 33.3042L1298.21 33.3088L1299.58 31.8516ZM1327.41 81.9492L1327.88 83.8945L1329.91 83.4097L1329.34 81.4027L1327.41 81.9492ZM1273.05 94.9375L1271.1 95.3822L1271.55 97.3523L1273.51 96.8828L1273.05 94.9375ZM1252.82 61.5391L1251.57 63.0971L1251.58 63.1045L1252.82 61.5391ZM1166.54 71.002L1165.04 69.6877L1165.03 69.6951L1166.54 71.002ZM1274.3 180.897L1327.55 197.781L1328.76 193.969L1275.51 177.084L1274.3 180.897ZM1326.23 195.345C1318.15 224.731 1304.74 246.383 1286.13 260.523L1288.55 263.708C1308.03 248.902 1321.84 226.394 1330.08 196.405L1326.23 195.345ZM1286.13 260.522C1267.62 274.551 1244.02 281.639 1215.16 281.639V285.639C1244.69 285.639 1269.2 278.377 1288.54 263.709L1286.13 260.522ZM1215.16 281.639C1179.55 281.639 1150.4 269.529 1127.55 245.341L1124.64 248.088C1148.3 273.133 1178.53 285.639 1215.16 285.639V281.639ZM1127.55 245.345C1104.73 221.066 1093.21 187.835 1093.21 145.406H1089.21C1089.21 188.576 1100.95 222.884 1124.64 248.085L1127.55 245.345ZM1093.21 145.406C1093.21 100.472 1104.81 65.8917 1127.74 41.3821L1124.82 38.6492C1101 64.1135 1089.21 99.7935 1089.21 145.406H1093.21ZM1127.74 41.3785C1150.7 16.7214 1180.89 4.34961 1218.5 4.34961V0.349609C1179.91 0.349609 1148.62 13.0885 1124.82 38.6528L1127.74 41.3785ZM1218.5 4.34961C1251.35 4.34961 1277.86 14.0446 1298.21 33.3041L1300.96 30.399C1279.74 10.3226 1252.19 0.349609 1218.5 0.349609V4.34961ZM1298.21 33.3088C1310.24 44.6191 1319.37 60.9606 1325.49 82.4958L1329.34 81.4027C1323.09 59.3962 1313.66 42.3392 1300.95 30.3943L1298.21 33.3088ZM1326.95 80.004L1272.58 92.9922L1273.51 96.8828L1327.88 83.8945L1326.95 80.004ZM1275 94.4928C1271.69 79.9967 1264.73 68.4498 1254.07 59.9736L1251.58 63.1045C1261.45 70.9565 1267.97 81.6751 1271.1 95.3822L1275 94.4928ZM1254.08 59.981C1243.54 51.4963 1230.71 47.293 1215.71 47.293V51.293C1229.91 51.293 1241.83 55.2537 1251.57 63.0971L1254.08 59.981ZM1215.71 47.293C1195.01 47.293 1178.06 54.7551 1165.04 69.6877L1168.05 72.3162C1180.27 58.3035 1196.1 51.293 1215.71 51.293V47.293ZM1165.03 69.6951C1152.07 84.7101 1145.8 108.742 1145.8 141.324H1149.8C1149.8 109.089 1156.03 86.2391 1168.06 72.3089L1165.03 69.6951ZM1145.8 141.324C1145.8 175.849 1151.99 200.943 1164.83 216.094L1167.89 213.508C1155.99 199.466 1149.8 175.576 1149.8 141.324H1145.8ZM1164.83 216.094C1177.6 231.156 1194.25 238.695 1214.6 238.695V234.695C1195.37 234.695 1179.86 227.638 1167.89 213.508L1164.83 216.094ZM1214.6 238.695C1229.66 238.695 1242.7 233.893 1253.59 224.279L1250.94 221.28C1240.81 230.22 1228.73 234.695 1214.6 234.695V238.695ZM1253.59 224.279C1264.53 214.625 1272.22 199.583 1276.85 179.438L1272.96 178.542C1268.43 198.228 1261.03 212.379 1250.94 221.28L1253.59 224.279ZM1375.47 279H1373.47V281H1375.47V279ZM1375.47 6.98828V4.98828H1373.47V6.98828H1375.47ZM1577.16 6.98828H1579.16V4.98828H1577.16V6.98828ZM1577.16 53.0039V55.0039H1579.16V53.0039H1577.16ZM1430.39 53.0039V51.0039H1428.39V53.0039H1430.39ZM1430.39 113.307H1428.39V115.307H1430.39V113.307ZM1566.96 113.307H1568.96V111.307H1566.96V113.307ZM1566.96 159.137V161.137H1568.96V159.137H1566.96ZM1430.39 159.137V157.137H1428.39V159.137H1430.39ZM1430.39 233.17H1428.39V235.17H1430.39V233.17ZM1582.36 233.17H1584.36V231.17H1582.36V233.17ZM1582.36 279V281H1584.36V279H1582.36ZM1377.47 279V6.98828H1373.47V279H1377.47ZM1375.47 8.98828H1577.16V4.98828H1375.47V8.98828ZM1575.16 6.98828V53.0039H1579.16V6.98828H1575.16ZM1577.16 51.0039H1430.39V55.0039H1577.16V51.0039ZM1428.39 53.0039V113.307H1432.39V53.0039H1428.39ZM1430.39 115.307H1566.96V111.307H1430.39V115.307ZM1564.96 113.307V159.137H1568.96V113.307H1564.96ZM1566.96 157.137H1430.39V161.137H1566.96V157.137ZM1428.39 159.137V233.17H1432.39V159.137H1428.39ZM1430.39 235.17H1582.36V231.17H1430.39V235.17ZM1580.36 233.17V279H1584.36V233.17H1580.36ZM1582.36 277H1375.47V281H1582.36V277Z" fill="#3F3E3D"/>
</svg>
