<svg width="44" height="38" viewBox="0 0 44 38" fill="none" xmlns="http://www.w3.org/2000/svg">
<path d="M42.0684 7.84769C41.4139 6.33225 40.4701 4.95896 39.29 3.80472C38.109 2.64704 36.7166 1.72704 35.1885 1.09476C33.6039 0.436524 31.9043 0.0996007 30.1885 0.10355C27.7812 0.10355 25.4326 0.76273 23.3916 2.00785C22.9033 2.3057 22.4395 2.63285 22 2.98929C21.5605 2.63285 21.0967 2.3057 20.6084 2.00785C18.5674 0.76273 16.2187 0.10355 13.8115 0.10355C12.0781 0.10355 10.3984 0.435581 8.81152 1.09476C7.27832 1.72953 5.89648 2.64261 4.70996 3.80472C3.5283 4.95766 2.58436 6.33127 1.93164 7.84769C1.25293 9.42484 0.90625 11.0996 0.90625 12.8233C0.90625 14.4493 1.23828 16.1436 1.89746 17.8672C2.44922 19.3077 3.24023 20.8018 4.25098 22.3106C5.85254 24.6983 8.05469 27.1885 10.7891 29.7129C15.3203 33.8975 19.8076 36.7881 19.998 36.9053L21.1553 37.6475C21.668 37.9746 22.3271 37.9746 22.8398 37.6475L23.9971 36.9053C24.1875 36.7832 28.6699 33.8975 33.2061 29.7129C35.9404 27.1885 38.1426 24.6983 39.7441 22.3106C40.7549 20.8018 41.5508 19.3077 42.0977 17.8672C42.7568 16.1436 43.0889 14.4493 43.0889 12.8233C43.0938 11.0996 42.7471 9.42484 42.0684 7.84769ZM22 33.7852C22 33.7852 4.61719 22.6475 4.61719 12.8233C4.61719 7.84769 8.7334 3.81449 13.8115 3.81449C17.3809 3.81449 20.4766 5.80667 22 8.71683C23.5234 5.80667 26.6191 3.81449 30.1885 3.81449C35.2666 3.81449 39.3828 7.84769 39.3828 12.8233C39.3828 22.6475 22 33.7852 22 33.7852Z" fill="#585454"/>
</svg>
