<svg width="220" height="191" viewBox="0 0 220 191" fill="none" xmlns="http://www.w3.org/2000/svg">
<path d="M19.4688 67.5742L18.1735 69.0981L18.1961 69.1174L18.2194 69.136L19.4688 67.5742ZM19.4688 13.6875L20.8067 15.1741L20.8267 15.1561L20.8463 15.1375L19.4688 13.6875ZM86.0703 19.7422L84.5033 20.985L84.527 21.0148L84.5518 21.0438L86.0703 19.7422ZM80.6211 128.727L82.28 129.844L82.2852 129.836L82.2903 129.828L80.6211 128.727ZM17.6523 187.457L16.0906 188.706L17.2435 190.148L18.7725 189.114L17.6523 187.457ZM3.12109 169.293L1.92593 167.689L0.266403 168.926L1.55936 170.542L3.12109 169.293ZM135.719 67.5742L134.423 69.0981L134.446 69.1174L134.469 69.136L135.719 67.5742ZM135.719 13.6875L137.057 15.1741L137.077 15.1561L137.096 15.1375L135.719 13.6875ZM202.926 19.7422L201.359 20.985L201.382 21.0148L201.407 21.0438L202.926 19.7422ZM134.508 187.457L132.946 188.706L134.113 190.165L135.647 189.101L134.508 187.457ZM119.977 169.293L118.791 167.682L117.114 168.916L118.415 170.542L119.977 169.293ZM50.9531 75.2617C38.3747 75.2617 28.3554 72.1223 20.7181 66.0125L18.2194 69.136C26.7279 75.9428 37.6982 79.2617 50.9531 79.2617V75.2617ZM20.764 66.0504C13.1711 59.5963 9.35938 51.088 9.35938 40.3281H5.35938C5.35938 52.1724 9.62061 61.8282 18.1735 69.0981L20.764 66.0504ZM9.35938 40.3281C9.35938 30.4224 13.1385 22.0755 20.8067 15.1741L18.1308 12.2009C9.65318 19.8308 5.35938 29.2443 5.35938 40.3281H9.35938ZM20.8463 15.1375C28.5269 7.84082 37.9147 4.18359 49.1367 4.18359V0.183594C36.9473 0.183594 26.5564 4.19565 18.0912 12.2375L20.8463 15.1375ZM49.1367 4.18359C63.8837 4.18359 75.6105 9.77225 84.5033 20.985L87.6373 18.4994C77.9625 6.30066 65.0668 0.183594 49.1367 0.183594V4.18359ZM84.5518 21.0438C93.851 31.8929 98.6016 46.524 98.6016 65.1523H102.602C102.602 45.838 97.6646 30.1956 87.5888 18.4406L84.5518 21.0438ZM98.6016 65.1523C98.6016 86.9262 92.0765 107.739 78.9519 127.625L82.2903 129.828C95.8063 109.349 102.602 87.7795 102.602 65.1523H98.6016ZM78.9622 127.609C65.8344 147.102 45.0662 166.51 16.5322 185.8L18.7725 189.114C47.5562 169.655 68.7672 149.908 82.28 129.844L78.9622 127.609ZM19.2141 186.208L4.68283 168.044L1.55936 170.542L16.0906 188.706L19.2141 186.208ZM4.31625 170.897C25.7961 154.888 42.0047 139.619 52.8586 125.079C63.7111 110.541 69.3008 96.6065 69.3008 83.3164H65.3008C65.3008 95.456 60.1939 108.566 49.6532 122.686C39.1138 136.805 23.2326 151.81 1.92593 167.689L4.31625 170.897ZM69.3008 83.3164C69.3008 81.1262 68.9286 79.1269 67.8797 77.6285C66.7397 76 65.0172 75.2617 63.0625 75.2617V79.2617C63.9333 79.2617 64.3299 79.5326 64.6028 79.9223C64.9666 80.4421 65.3008 81.4702 65.3008 83.3164H69.3008ZM63.0625 75.2617H50.9531V79.2617H63.0625V75.2617ZM167.203 75.2617C154.625 75.2617 144.605 72.1223 136.968 66.0125L134.469 69.136C142.978 75.9428 153.948 79.2617 167.203 79.2617V75.2617ZM137.014 66.0504C129.421 59.5963 125.609 51.088 125.609 40.3281H121.609C121.609 52.1724 125.871 61.8282 134.423 69.0981L137.014 66.0504ZM125.609 40.3281C125.609 30.4224 129.388 22.0755 137.057 15.1741L134.381 12.2009C125.903 19.8308 121.609 29.2443 121.609 40.3281H125.609ZM137.096 15.1375C144.777 7.84082 154.165 4.18359 165.387 4.18359V0.183594C153.197 0.183594 142.806 4.19565 134.341 12.2375L137.096 15.1375ZM165.387 4.18359C180.556 4.18359 192.477 9.7865 201.359 20.985L204.493 18.4994C194.807 6.28641 181.702 0.183594 165.387 0.183594V4.18359ZM201.407 21.0438C210.707 31.8929 215.457 46.524 215.457 65.1523H219.457C219.457 45.838 214.52 30.1956 204.444 18.4406L201.407 21.0438ZM215.457 65.1523C215.457 107.382 188.44 147.625 133.368 185.814L135.647 189.101C191.175 150.596 219.457 109.303 219.457 65.1523H215.457ZM136.07 186.208L121.538 168.044L118.415 170.542L132.946 188.706L136.07 186.208ZM121.162 170.904C142.645 155.096 158.857 139.926 169.714 125.382C180.572 110.837 186.156 96.8024 186.156 83.3164H182.156C182.156 95.6638 177.044 108.875 166.509 122.989C155.972 137.104 140.095 152.006 118.791 167.682L121.162 170.904ZM186.156 83.3164C186.156 81.0845 185.719 79.0405 184.507 77.526C183.227 75.9263 181.368 75.2617 179.312 75.2617V79.2617C180.486 79.2617 181.049 79.6062 181.384 80.0248C181.787 80.5286 182.156 81.5119 182.156 83.3164H186.156ZM179.312 75.2617H167.203V79.2617H179.312V75.2617Z" fill="#6E6E6E"/>
</svg>
