<svg width="20" height="20" viewBox="0 0 20 20" fill="none" xmlns="http://www.w3.org/2000/svg">
<path d="M10.5075 1.875L2.15844 4.17844H2.14719C2.00844 4.17844 0.625 4.21719 0.625 5.76406C0.625 6.43625 0.923125 6.93719 0.923125 6.93719L7.28375 17.5753C7.89188 18.5441 9.18344 17.9375 9.18344 17.9375L18.9369 13.1859L18.5719 12.8156C18.4859 12.3709 18.4359 11.5475 19.0397 10.9344C19.0531 10.9206 19.0556 10.9019 19.0628 10.8847L19.375 10.7594L10.5075 1.875ZM10.7666 3.90375L12.4738 5.76219L6.10156 8.09562L4.59656 5.72813L10.7666 3.90375ZM7.05813 15.9806L1.46313 6.62188C1.46063 6.61844 1.25 6.24406 1.25 5.76406C1.25 5.15531 1.54813 4.92375 1.83969 4.84281L8.2375 14.8228C7.75594 15.0312 7.21781 15.5075 7.05813 15.9806ZM18.2537 11.9191C18.2334 12.0628 18.2231 12.2028 18.2253 12.3341L11.8225 15.3731L18.2481 12.6462C18.2544 12.6962 18.26 12.7459 18.2678 12.7909L10.06 16.7553L18.3325 13.0863L18.3375 13.1059L9.18344 17.485C9.17906 17.4878 8.76125 17.71 8.3425 17.71C7.92875 17.71 7.67094 17.4975 7.55344 17.0606C7.25125 15.9381 8.96813 15.3019 8.99406 15.2925L18.4888 11.1847C18.4206 11.3097 18.3734 11.4372 18.3341 11.5638L12.3069 14.4009L18.2537 11.9191Z" fill="black"/>
</svg>
