<svg width="34" height="26" viewBox="0 0 34 26" fill="none" xmlns="http://www.w3.org/2000/svg">
<path d="M0.820706 7.65498L7.47904 0.988309C7.76582 0.701103 8.14754 0.52841 8.55259 0.502634C8.95763 0.476858 9.35817 0.599771 9.67904 0.848309L9.8357 0.986642L16.5124 7.65331C16.818 7.95175 16.9974 8.35615 17.0135 8.78302C17.0296 9.20989 16.8811 9.62665 16.5988 9.94724C16.3165 10.2678 15.9219 10.4678 15.4964 10.5058C15.0709 10.5439 14.6471 10.4171 14.3124 10.1516L14.1557 10.0133L10.334 6.19498V23.835C10.334 24.2432 10.1841 24.6372 9.91285 24.9423C9.64158 25.2473 9.26779 25.4422 8.86237 25.49L8.66737 25.5C8.25889 25.4999 7.86468 25.3498 7.55958 25.0782C7.25448 24.8066 7.05976 24.4324 7.01237 24.0266L7.00071 23.835V6.18331L3.17904 10.0116C2.89226 10.2989 2.51054 10.4715 2.10549 10.4973C1.70044 10.5231 1.29991 10.4002 0.97904 10.1516L0.820706 10.0116C0.5335 9.72487 0.360807 9.34314 0.335031 8.9381C0.309256 8.53305 0.432168 8.13251 0.680706 7.81164L0.820706 7.65498L7.47904 0.988309L0.820706 7.65498ZM25.139 0.516643L25.334 0.504975C25.7425 0.505077 26.1367 0.655184 26.4418 0.92679C26.7469 1.1984 26.9417 1.57259 26.989 1.97831L27.0007 2.17164V19.8116L30.8224 15.9883C31.1091 15.7011 31.4909 15.5284 31.8959 15.5026C32.301 15.4769 32.7015 15.5998 33.0224 15.8483L33.179 15.9883C33.4662 16.2751 33.6389 16.6568 33.6647 17.0619C33.6905 17.4669 33.5676 17.8674 33.319 18.1883L33.179 18.345L26.519 25.0116C26.2323 25.2989 25.8505 25.4715 25.4455 25.4973C25.0404 25.5231 24.6399 25.4002 24.319 25.1516L24.1624 25.0116L17.489 18.345C17.1869 18.0457 17.0107 17.6424 16.9962 17.2174C16.9818 16.7924 17.1304 16.378 17.4115 16.059C17.6926 15.74 18.085 15.5405 18.5084 15.5013C18.9318 15.4621 19.3542 15.5863 19.689 15.8483L19.8457 15.9883L23.6674 19.805V2.17164C23.6674 1.76342 23.8173 1.36941 24.0886 1.06436C24.3598 0.759297 24.7336 0.564405 25.139 0.516643L25.334 0.504975L25.139 0.516643Z" fill="white"/>
</svg>
