<?xml version="1.0" encoding="utf-8"?>
<!-- Generator: Adobe Illustrator 19.1.0, SVG Export Plug-In . SVG Version: 6.00 Build 0)  -->
<svg version="1.0" id="Layer_1" xmlns="http://www.w3.org/2000/svg" xmlns:xlink="http://www.w3.org/1999/xlink" x="0px" y="0px"
	 width="80px" height="80px" viewBox="0 0 80 80" style="enable-background:new 0 0 80 80;" xml:space="preserve">
<style type="text/css">
	.st0{fill:#ECA835;}
	.st1{fill:#0177B5;}
	.st2{fill:none;}
	.st3{fill:#010101;}
	.st4{clip-path:url(#SVGID_2_);fill:#3EB76A;}
	.st5{fill:#FFFFFF;}
	.st6{clip-path:url(#SVGID_4_);fill:#3EB76A;}
	.st7{fill:#029DD4;}
</style>
<g>
	<circle class="st0" cx="51.9" cy="18.9" r="8.4"/>
	<path class="st1" d="M37,60.6l-6.5-17.3l0-0.1c-0.2-0.3-0.5-0.5-0.9-0.5h-9.3v-2.5l0-0.2h-2.9v2.7H8c-0.4,0-0.7,0.2-0.8,0.5
		L0.5,60.6c0,0.1,0,0.2,0,0.5c0,0.1,0.1,0.2,0.1,0.3l0.1,0.1c0.1,0.1,0.1,0.2,0.2,0.2C1,61.8,3.7,64.9,8,64.9c4.2,0,7-3.1,7.1-3.2
		c0.1-0.1,0.2-0.1,0.2-0.2l0.1-0.1c0.1-0.1,0.1-0.2,0.1-0.4c0-0.1,0-0.2,0-0.4l-6-16h7.9v22H12v3h13.5v-3h-5.2l0-22h7.9l-6,16.1
		c0,0.1,0,0.2,0,0.5c0,0.1,0.1,0.2,0.2,0.4c0.1,0.1,0.1,0.2,0.2,0.2c0.1,0.1,2.9,3.3,7.1,3.3c4.3,0,7-3.1,7-3.2
		c0.1-0.1,0.2-0.1,0.2-0.2l0.1-0.1c0.1-0.1,0.1-0.2,0.1-0.4C37.1,60.8,37.1,60.7,37,60.6z M34.7,59.9H24.5l5.1-13.6L34.7,59.9z
		 M8,46.4l5.1,13.6H2.9L8,46.4z"/>
	<path class="st0" d="M73.7,48.4v-6.7c0-5.9-4.4-11.7-11.3-11.7H59l-5.3,11.7v-12h-3.7v11.9L44.8,30l-32.2,0c-5.3,0-5.4,7.7-0.1,7.7
		h27.1l0,31.8h16.5v0h23.3V48.4H73.7z M64.6,42.2h2.2v6.1h-2.2L64.6,42.2z M57,50.5h9.8V59H57V50.5z M77.3,67.4H57v-6.2h9.8v0.4
		c0,5.3,7,5.3,6.9,0v-0.4h3.7V67.4L77.3,67.4z M77.3,59h-3.7v-8.4h3.7V59z"/>
</g>
</svg>
